# xmcd
#
# Track frame offsets:
#	150
#	13127
#	27864
#	44775
#	62750
#	77919
#	92477
#	106849
#	121255
#	137139
#	152567
#	167981
#	186772
#	201388
#	213939
#
# Disc length: 3046 seconds
#
# Revision: 1
# Processed by: cddbd v1.5.2PL0 Copyright (c) Steve Scherf et al.
# Submitted via: audiograbber 1.83.01
#
DISCID=cf0be40f
DTITLE=Verschiedene - Malorca Partyhits, CD 1
DYEAR=2018
DGENRE=Schlager
TTITLE0=Mike Brause - Bist braun, kriegste Fraun
TTITLE1=Hubi Schrauber - Helikopter
TTITLE2=Melly Harris - Outside
TTITLE3=Andy Bugatti - Auf uns
TTITLE4=Die Grubertaler - Ibiza
TTITLE5=Alex Schuler - Schatzi schenk' mir ein Foto
TTITLE6=Domingos - Pilot in der Nacht 
TTITLE7=Ulli Bastian - Schöne Mädchen gibt es überall
TTITLE8=Orig. Südtiroler Spitzbuam - Feiern bis die Hütte kracht
TTITLE9=Alpenwind - Auf die Bänke
TTITLE10=Fabio Cobelli  - Waves
TTITLE11=Die Grubertaler - Gespensterstadt
TTITLE12=Die fetzig'n Zillertaler - Nix Amore
TTITLE13=Tops - Die Hände zum Himmel
TTITLE14=Fritz Pommes - Pommes mit Senf
EXTD=
EXTT0=
EXTT1=
EXTT2=
EXTT3=
EXTT4=
EXTT5=
EXTT6=
EXTT7=
EXTT8=
EXTT9=
EXTT10=
EXTT11=
EXTT12=
EXTT13=
EXTT14=
PLAYORDER=
